<?xml version="1.0" standalone="no"?>
<!DOCTYPE svg PUBLIC "-//W3C//DTD SVG 20010904//EN"
 "http://www.w3.org/TR/2001/REC-SVG-20010904/DTD/svg10.dtd">
<svg version="1.0" xmlns="http://www.w3.org/2000/svg"
 width="700.000000pt" height="700.000000pt" viewBox="0 0 700.000000 700.000000"
 preserveAspectRatio="xMidYMid meet">
<metadata>
Created by potrace 1.14, written by Peter Selinger 2001-2017
</metadata>
<g transform="translate(0.000000,700.000000) scale(0.100000,-0.100000)"
fill="#000000" stroke="none">
<path d="M0 3500 l0 -3500 3500 0 3500 0 0 3500 0 3500 -3500 0 -3500 0 0
-3500z m3100 -623 c0 -2 178 -534 395 -1181 217 -648 395 -1182 395 -1187 0
-6 -89 -8 -217 -7 l-216 3 -18 55 c-10 30 -43 135 -74 232 l-56 178 -407 0
-408 0 -74 -235 -73 -235 -202 0 c-111 0 -204 3 -208 6 -3 3 173 539 391 1190
l397 1184 188 0 c103 0 187 -2 187 -3z m1014 -14 c26 -88 198 -1047 247 -1375
35 -230 64 -416 66 -415 1 2 106 401 233 887 127 487 233 893 236 903 5 15 23
17 194 17 l189 0 15 -52 c8 -29 112 -426 231 -883 118 -456 218 -837 222 -845
3 -8 39 181 80 420 70 409 247 1347 256 1356 2 3 98 3 213 2 l210 -3 -261
-1160 c-144 -638 -264 -1172 -268 -1188 l-7 -27 -215 0 c-118 0 -215 3 -215 6
0 9 -451 1749 -455 1752 -5 5 -19 -49 -235 -878 -111 -426 -208 -799 -216
-828 l-15 -52 -215 0 c-118 0 -214 2 -214 4 0 2 -119 534 -265 1181 -146 648
-265 1182 -265 1187 0 4 101 8 224 8 205 0 225 -2 230 -17z"/>
<path d="M2892 2258 c-6 -18 -48 -154 -92 -303 -45 -148 -104 -340 -131 -425
-27 -85 -49 -161 -49 -167 0 -10 63 -13 280 -13 240 0 280 2 280 15 0 8 -20
77 -45 154 -24 77 -86 281 -136 453 -50 172 -92 314 -94 316 -2 2 -8 -12 -13
-30z"/>
</g>
</svg>
