<svg viewBox="0 0 500 500" fill="none" xmlns="http://www.w3.org/2000/svg">
<g clip-path="url(#clip0_1_2)">
<rect width="500" height="500" fill="white"/>




<path d="M0 0H500V500H0V0Z" fill="#00A85F"/>
<path d="M246.927 464L236.427 430.75H178.177L167.677 464H137.927L194.677 294H221.177L278.177 464H246.927ZM194.427 378.75L186.677 403.25H227.677L219.927 378.75L207.427 335.75L194.427 378.75Z" fill="white"/>
<path d="M306.602 361.25L316.102 424.25L350.102 294H377.102L410.852 423.25L421.352 361.25L434.352 294H464.852L426.602 464H395.852L363.102 337.5L330.102 464H299.352L261.102 294H293.602L306.602 361.25Z" fill="white"/>
</g>
<defs>
<clipPath id="clip0_1_2">
<rect width="500" height="500" fill="white"/>
</clipPath>
</defs>
</svg>
