<svg width="53" height="55" viewBox="0 0 53 55" fill="none" xmlns="http://www.w3.org/2000/svg">
<path d="M26.52 0.399999C31.8533 0.399999 36.44 1.49333 40.28 3.68C44.1733 5.81333 47.16 8.90666 49.24 12.96C51.32 17.0133 52.36 21.8933 52.36 27.6C52.36 33.3067 51.32 38.1867 49.24 42.24C47.16 46.2933 44.1733 49.4133 40.28 51.6C36.44 53.7333 31.8533 54.8 26.52 54.8C21.1867 54.8 16.5733 53.7333 12.68 51.6C8.78667 49.4133 5.8 46.2933 3.72 42.24C1.64 38.1867 0.6 33.3067 0.6 27.6C0.6 21.8933 1.64 17.0133 3.72 12.96C5.8 8.90666 8.78667 5.81333 12.68 3.68C16.5733 1.49333 21.1867 0.399999 26.52 0.399999ZM26.52 11.2C23.96 11.2 21.8 11.8133 20.04 13.04C18.28 14.2667 16.9467 16.1067 16.04 18.56C15.1333 20.96 14.68 23.9733 14.68 27.6C14.68 31.1733 15.1333 34.1867 16.04 36.64C16.9467 39.0933 18.28 40.9333 20.04 42.16C21.8 43.3867 23.96 44 26.52 44C29.08 44 31.2133 43.3867 32.92 42.16C34.68 40.9333 36.0133 39.0933 36.92 36.64C37.8267 34.1867 38.28 31.1733 38.28 27.6C38.28 23.9733 37.8267 20.96 36.92 18.56C36.0133 16.1067 34.68 14.2667 32.92 13.04C31.2133 11.8133 29.08 11.2 26.52 11.2Z"/>
</svg>
